<svg xmlns="http://www.w3.org/2000/svg" viewBox="0 0 1600 1000"><title>The desert ridge in clear light</title><defs><linearGradient id="a" x2="0" y2="1"><stop stop-color="#0d1927"/><stop offset=".65" stop-color="#273e55"/><stop offset="1" stop-color="#697f90"/></linearGradient><linearGradient id="e" x2="1" y2=".4"><stop stop-color="#697f90"/><stop offset=".5" stop-color="#273e55"/><stop offset="1" stop-color="#0d1927"/></linearGradient><linearGradient id="d" x2="0" y2="1"><stop stop-color="#697f90" stop-opacity="0"/><stop offset=".7" stop-color="#697f90" stop-opacity=".16"/><stop offset="1" stop-color="#697f90" stop-opacity="0"/></linearGradient><radialGradient id="b"><stop stop-color="#f1dba9" stop-opacity=".42"/><stop offset=".4" stop-color="#acb5aa" stop-opacity=".12"/><stop offset="1" stop-color="#acb5aa" stop-opacity="0"/></radialGradient><radialGradient id="c" cx=".35" cy=".3"><stop stop-color="#f1dba9"/><stop offset=".78" stop-color="#acb5aa"/><stop offset="1" stop-color="#697f90"/></radialGradient></defs><path fill="url(#a)" d="M0 0h1600v1000H0z"/><circle cx="1094" cy="550" r="470" fill="url(#b)"/><circle cx="1394.49" cy="289.44" r=".55" fill="#f1dba9" opacity=".46"/><circle cx="131.46" cy="315.93" r=".55" fill="#f1dba9" opacity=".69"/><circle cx="1244.42" cy="232.45" r=".55" fill="#f1dba9" opacity=".47"/><circle cx="344.42" cy="117.83" r=".55" fill="#f1dba9" opacity=".27"/><circle cx="1069.01" cy="112.03" r=".55" fill="#f1dba9" opacity=".32"/><circle cx="544.22" cy="374.51" r=".55" fill="#f1dba9" opacity=".63"/><circle cx="54.12" cy="388.47" r=".55" fill="#f1dba9" opacity=".25"/><circle cx="501" cy="291.57" r=".55" fill="#f1dba9" opacity=".28"/><circle cx="290.14" cy="92.3" r=".55" fill="#f1dba9" opacity=".49"/><circle cx="1165.13" cy="151.65" r=".55" fill="#f1dba9" opacity=".34"/><circle cx="978.77" cy="172.08" r=".55" fill="#f1dba9" opacity=".28"/><circle cx="1540.32" cy="389.77" r=".55" fill="#f1dba9" opacity=".51"/><circle cx="272.44" cy="307.44" r="1.4" fill="#f1dba9" opacity=".68"/><circle cx="1378.58" cy="276.79" r=".55" fill="#f1dba9" opacity=".31"/><circle cx="375.72" cy="312.51" r=".55" fill="#f1dba9" opacity=".71"/><circle cx="690.22" cy="195.89" r="1.4" fill="#f1dba9" opacity=".27"/><circle cx="826.44" cy="189.75" r=".55" fill="#f1dba9" opacity=".56"/><circle cx="1346.28" cy="1.04" r=".55" fill="#f1dba9" opacity=".49"/><circle cx="872.14" cy="339.71" r=".55" fill="#f1dba9" opacity=".54"/><circle cx="726.13" cy="331.47" r=".55" fill="#f1dba9" opacity=".71"/><circle cx="422.08" cy="287.22" r=".55" fill="#f1dba9" opacity=".49"/><circle cx="363.66" cy="300.79" r=".55" fill="#f1dba9" opacity=".38"/><circle cx="731.11" cy="13.51" r=".55" fill="#f1dba9" opacity=".36"/><circle cx="1343.73" cy="145.74" r=".55" fill="#f1dba9" opacity=".24"/><circle cx="1039.95" cy="249.38" r=".55" fill="#f1dba9" opacity=".23"/><circle cx="974.17" cy="66.52" r=".55" fill="#f1dba9" opacity=".45"/><circle cx="1536.93" cy="208.11" r=".55" fill="#f1dba9" opacity=".23"/><circle cx="800.72" cy="27.31" r=".55" fill="#f1dba9" opacity=".65"/><circle cx="1229.14" cy="4.81" r=".55" fill="#f1dba9" opacity=".46"/><circle cx="1252.03" cy="252.6" r=".55" fill="#f1dba9" opacity=".69"/><circle cx="662.33" cy="144.7" r=".55" fill="#f1dba9" opacity=".21"/><circle cx="1211.47" cy="365.54" r=".55" fill="#f1dba9" opacity=".31"/><circle cx="204.29" cy="203.95" r=".55" fill="#f1dba9" opacity=".51"/><circle cx="958.89" cy="307.7" r=".55" fill="#f1dba9" opacity=".73"/><circle cx="290.82" cy="210.2" r=".55" fill="#f1dba9" opacity=".35"/><circle cx="514.28" cy="67.63" r=".55" fill="#f1dba9" opacity=".55"/><circle cx="1369.57" cy="61.98" r=".55" fill="#f1dba9" opacity=".28"/><circle cx="1346.25" cy="244.34" r=".55" fill="#f1dba9" opacity=".72"/><circle cx="404.28" cy="97.12" r=".55" fill="#f1dba9" opacity=".3"/><circle cx="1396.73" cy="372.16" r=".55" fill="#f1dba9" opacity=".58"/><circle cx="1330.17" cy="287.73" r="1.4" fill="#f1dba9" opacity=".71"/><circle cx="125.37" cy="189.56" r=".55" fill="#f1dba9" opacity=".49"/><circle cx="1325.35" cy="129.7" r=".55" fill="#f1dba9" opacity=".67"/><circle cx="1342.51" cy="369.34" r=".55" fill="#f1dba9" opacity=".51"/><circle cx="1129.06" cy="52.52" r=".55" fill="#f1dba9" opacity=".48"/><circle cx="419.51" cy="49.3" r=".55" fill="#f1dba9" opacity=".72"/><circle cx="1449.36" cy="157.14" r=".55" fill="#f1dba9" opacity=".64"/><circle cx="1553.56" cy="306.46" r=".55" fill="#f1dba9" opacity=".75"/><circle cx="1129.09" cy="368.92" r=".55" fill="#f1dba9" opacity=".45"/><circle cx="583.93" cy="287.15" r=".55" fill="#f1dba9" opacity=".64"/><circle cx="143.56" cy="64.8" r=".55" fill="#f1dba9" opacity=".68"/><circle cx="846.22" cy="46.26" r=".55" fill="#f1dba9" opacity=".28"/><circle cx="67.19" cy="122.89" r=".55" fill="#f1dba9" opacity=".51"/><circle cx="20.46" cy="387.64" r=".55" fill="#f1dba9" opacity=".58"/><circle cx="461.07" cy="325.28" r=".55" fill="#f1dba9" opacity=".33"/><circle cx="705.46" cy="132.02" r=".55" fill="#f1dba9" opacity=".62"/><circle cx="1273.67" cy="68.36" r=".55" fill="#f1dba9" opacity=".23"/><circle cx="703.52" cy="21.65" r=".55" fill="#f1dba9" opacity=".31"/><circle cx="1013.79" cy="209.95" r="1.4" fill="#f1dba9" opacity=".63"/><circle cx="290.97" cy="12.13" r=".55" fill="#f1dba9" opacity=".24"/><circle cx="599.66" cy="284.81" r=".55" fill="#f1dba9" opacity=".47"/><circle cx="1467.87" cy="183.32" r=".55" fill="#f1dba9" opacity=".51"/><circle cx="1422.13" cy="163.29" r=".55" fill="#f1dba9" opacity=".53"/><circle cx="1001.5" cy="75.25" r=".55" fill="#f1dba9" opacity=".41"/><circle cx="209.05" cy="256.33" r=".55" fill="#f1dba9" opacity=".31"/><circle cx="1094" cy="532" r="66" fill="url(#c)" opacity=".75"/><circle cx="1094" cy="532" r="74" fill="none" stroke="#acb5aa" stroke-width=".5" opacity=".22"/><circle cx="1094" cy="532" r="84" fill="none" stroke="#acb5aa" stroke-width=".5" opacity=".18"/><circle cx="1094" cy="532" r="94" fill="none" stroke="#acb5aa" stroke-width=".5" opacity=".15"/><circle cx="1094" cy="532" r="104" fill="none" stroke="#acb5aa" stroke-width=".5" opacity=".12"/><circle cx="1094" cy="532" r="114" fill="none" stroke="#acb5aa" stroke-width=".5" opacity=".08"/><path fill="none" stroke="#acb5aa" stroke-linecap="round" stroke-linejoin="round" stroke-width=".45" d="M162.39 117.01c187.74-32 450.57 28 750.95-10" opacity=".21"/><path fill="none" stroke="#acb5aa" stroke-linecap="round" stroke-linejoin="round" stroke-width=".45" d="M215.83 132.16c321.6-32 771.84 28 1286.39-10" opacity=".1"/><path fill="none" stroke="#acb5aa" stroke-linecap="round" stroke-linejoin="round" stroke-width=".45" d="M356.76 141.63c266.91-32 640.58 28 1067.64-10" opacity=".13"/><path fill="none" stroke="#acb5aa" stroke-linecap="round" stroke-linejoin="round" stroke-width=".45" d="M-49.71 139.11c288.31-32 691.94 28 1153.24-10" opacity=".12"/><path fill="none" stroke="#acb5aa" stroke-linecap="round" stroke-linejoin="round" stroke-width=".45" d="M188.56 160.74c301.46-32 723.49 28 1205.82-10" opacity=".15"/><path fill="none" stroke="#acb5aa" stroke-linecap="round" stroke-linejoin="round" stroke-width=".45" d="M148.35 146.27c228.81-32 549.15 28 915.25-10" opacity=".16"/><path fill="none" stroke="#acb5aa" stroke-linecap="round" stroke-linejoin="round" stroke-width=".45" d="M-37.16 178.92c197.47-32 473.93 28 789.88-10" opacity=".11"/><path fill="none" stroke="#acb5aa" stroke-linecap="round" stroke-linejoin="round" stroke-width=".45" d="M-6.77 181.58c265.76-32 637.81 28 1063.02-10" opacity=".21"/><path fill="none" stroke="#acb5aa" stroke-linecap="round" stroke-linejoin="round" stroke-width=".45" d="M235.25 191.39c222.97-32 535.14 28 891.89-10" opacity=".11"/><path fill="none" stroke="#acb5aa" stroke-linecap="round" stroke-linejoin="round" stroke-width=".45" d="M107.26 185.07c185.3-32 444.73 28 741.22-10" opacity=".22"/><path fill="none" stroke="#acb5aa" stroke-linecap="round" stroke-linejoin="round" stroke-width=".45" d="M363.31 202.05c288.24-32 691.76 28 1152.94-10" opacity=".13"/><path fill="none" stroke="#acb5aa" stroke-linecap="round" stroke-linejoin="round" stroke-width=".45" d="M133.13 204.09c259.83-32 623.61 28 1039.35-10" opacity=".11"/><path fill="none" stroke="#acb5aa" stroke-linecap="round" stroke-linejoin="round" stroke-width=".45" d="M309.28 232.28c185.3-32 444.71 28 741.17-10" opacity=".18"/><path fill="none" stroke="#acb5aa" stroke-linecap="round" stroke-linejoin="round" stroke-width=".45" d="M-116.29 217.74c318.4-32 764.17 28 1273.62-10" opacity=".18"/><path fill="none" stroke="#acb5aa" stroke-linecap="round" stroke-linejoin="round" stroke-width=".45" d="M243.12 226.49c247.32-32 593.57 28 989.29-10" opacity=".17"/><path fill="none" stroke="#acb5aa" stroke-linecap="round" stroke-linejoin="round" stroke-width=".45" d="M117.96 238.29c279.95-32 671.88 28 1119.8-10" opacity=".21"/><path fill="none" stroke="#acb5aa" stroke-linecap="round" stroke-linejoin="round" stroke-width=".45" d="M56.86 261.77c187.3-32 449.52 28 749.2-10" opacity=".18"/><path fill="none" stroke="#acb5aa" stroke-linecap="round" stroke-linejoin="round" stroke-width=".45" d="M158.06 262.44c284.92-32 683.8 28 1139.66-10" opacity=".12"/><path fill="none" stroke="#acb5aa" stroke-linecap="round" stroke-linejoin="round" stroke-width=".45" d="M-8.68 267.66c273.2-32 655.69 28 1092.81-10" opacity=".21"/><path fill="none" stroke="#acb5aa" stroke-linecap="round" stroke-linejoin="round" stroke-width=".45" d="M307.11 278.48c312.2-32 749.28 28 1248.81-10" opacity=".22"/><path fill="none" stroke="#acb5aa" stroke-linecap="round" stroke-linejoin="round" stroke-width=".45" d="M134.65 298.47c185.5-32 445.19 28 741.98-10" opacity=".19"/><path fill="none" stroke="#acb5aa" stroke-linecap="round" stroke-linejoin="round" stroke-width=".45" d="M140.18 291.63c254.25-32 610.2 28 1017.01-10" opacity=".17"/><path fill="none" stroke="#acb5aa" stroke-linecap="round" stroke-linejoin="round" stroke-width=".45" d="M301.15 310.2c296.81-32 712.34 28 1187.24-10" opacity=".15"/><path fill="none" stroke="#acb5aa" stroke-linecap="round" stroke-linejoin="round" stroke-width=".45" d="M324.77 314.19c256.7-32 616.09 28 1026.81-10" opacity=".17"/><path fill="none" stroke="#acb5aa" stroke-linecap="round" stroke-linejoin="round" stroke-width=".45" d="M323.98 321.79c185.4-32 444.96 28 741.6-10" opacity=".14"/><path fill="none" stroke="#acb5aa" stroke-linecap="round" stroke-linejoin="round" stroke-width=".45" d="M-62.94 329.59c244.24-32 586.19 28 976.98-10" opacity=".14"/><path fill="none" stroke="#acb5aa" stroke-linecap="round" stroke-linejoin="round" stroke-width=".45" d="M41.41 342.48c208.38-32 500.11 28 833.52-10" opacity=".2"/><path fill="none" stroke="#acb5aa" stroke-linecap="round" stroke-linejoin="round" stroke-width=".45" d="M183.14 349.38c298.6-32 716.64 28 1194.41-10" opacity=".11"/><path fill="none" stroke="#acb5aa" stroke-linecap="round" stroke-linejoin="round" stroke-width=".45" d="M313.21 366.55c277.62-32 666.27 28 1110.45-10" opacity=".11"/><path fill="none" stroke="#acb5aa" stroke-linecap="round" stroke-linejoin="round" stroke-width=".45" d="M239.69 373.53c319.41-32 766.58 28 1277.64-10" opacity=".22"/><path fill="none" stroke="#acb5aa" stroke-linecap="round" stroke-linejoin="round" stroke-width=".45" d="M349.75 387.91c180.99-32 434.37 28 723.95-10" opacity=".14"/><path fill="none" stroke="#acb5aa" stroke-linecap="round" stroke-linejoin="round" stroke-width=".45" d="M-108.09 383.82c311.28-32 747.08 28 1245.13-10" opacity=".19"/><path fill="none" stroke="#acb5aa" stroke-linecap="round" stroke-linejoin="round" stroke-width=".45" d="M62.16 388.21c298.33-32 715.98 28 1193.31-10" opacity=".19"/><path fill="none" stroke="#acb5aa" stroke-linecap="round" stroke-linejoin="round" stroke-width=".45" d="M144.25 399.64c260.69-32 625.66 28 1042.77-10" opacity=".12"/><path fill="none" stroke="#acb5aa" stroke-linecap="round" stroke-linejoin="round" stroke-width=".45" d="M57.75 416.17c189.27-32 454.26 28 757.1-10" opacity=".19"/><path fill="none" stroke="#acb5aa" stroke-linecap="round" stroke-linejoin="round" stroke-width=".45" d="M-72.82 432.31c309.12-32 741.9 28 1236.5-10" opacity=".12"/><path fill="none" stroke="#acb5aa" stroke-linecap="round" stroke-linejoin="round" stroke-width=".45" d="M-68.38 446.24c228.69-32 548.86 28 914.77-10" opacity=".18"/><path fill="none" stroke="#acb5aa" stroke-linecap="round" stroke-linejoin="round" stroke-width=".45" d="M-64.3 436.65c322.5-32 774.01 28 1290.02-10" opacity=".2"/><path fill="none" stroke="#acb5aa" stroke-linecap="round" stroke-linejoin="round" stroke-width=".45" d="M184.39 449.46c224.18-32 538.02 28 896.69-10" opacity=".18"/><path fill="none" stroke="#acb5aa" stroke-linecap="round" stroke-linejoin="round" stroke-width=".45" d="M-57.89 458.29c250.66-32 601.58 28 1002.63-10" opacity=".14"/><path fill="none" stroke="#acb5aa" stroke-linecap="round" stroke-linejoin="round" stroke-width=".45" d="M204.78 484.89c250.74-32 601.78 28 1002.97-10" opacity=".16"/><path fill="none" stroke="#acb5aa" stroke-linecap="round" stroke-linejoin="round" stroke-width=".45" d="M322.5 487.22c204.26-32 490.22 28 817.03-10" opacity=".14"/><path fill="none" stroke="#acb5aa" stroke-linecap="round" stroke-linejoin="round" stroke-width=".45" d="M196.56 486.81c248.11-32 595.46 28 992.44-10" opacity=".21"/><path fill="none" stroke="#acb5aa" stroke-linecap="round" stroke-linejoin="round" stroke-width=".45" d="M-82.65 494.21c292.77-32 702.65 28 1171.08-10" opacity=".13"/><path fill="#697f90" stroke="#acb5aa" stroke-linecap="round" stroke-linejoin="round" stroke-width=".75" d="m-30 590.3 12 4.63 12 2.34 12-.08 12-.95 12-.57 12-.69 12-2.34 12-4.47 12-5.1 12-3.38 12-.77 12 .59 12-.03 12-1.23 12-1.29 12-.12 12 .61 12-.56 12-3.05 12-4.75 12-4.14 12-1.91 12-.13 12 .07 12-.44 12 .14 12 2.22 12 4.26 12 4.31 12 2.19 12-.25 12-1.08 12-.26 12 .52 12-.11 12-1.58 12-1.98 12-.33 12 2.2 12 3.38 12 2.26 12 .08 12-1.19 12-1.02 12-.78 12-2.08 12-4.67 12-6.61 12-6.26 12-4.08 12-2.17 12-2.03 12-3.06 12-3.44 12-2.32 12-.9 12-1.09 12-3.27 12-5.77 12-6.49 12-5.09 12-3.24 12-2.62 12-3.1 12-2.96 12-1.03 12 1.86 12 3.5 12 2.78 12 .72 12-.51 12-.03 12 1.06 12 1 12-.43 12-1.52 12-.61 12 2.07 12 4.48 12 4.84 12 3.49 12 2.29 12 2.47 12 3.26 12 2.82 12 .5 12-2.26 12-3.3 12-2.07 12-.11 12 .64 12-.14 12-.85 12-.07 12 1.73 12 2.59 12 1.21 12-1.55 12-3.47 12-3.29 12-1.92 12-1.25 12-1.93 12-2.6 12-1.55 12 1.25 12 3.92 12 4.52 12 3.15 12 1.65 12 1.64 12 2.72 12 3.11 12 1.85 12 .03 12-.28 12 1.69 12 4.49 12 6 12 5.53 12 4.5 12 4.57 12 5.75 12 6.27 12 4.72 12 1.71 12-.58 12-.66 12 .77 12 1.72 12 1.13 12-.02 12 .07 12 1.74 12 3.4 12 3.07 12 .64 12-2.06 12-3.14 2 408.04H-30Z"/><path fill="none" stroke="#acb5aa" stroke-linecap="round" stroke-linejoin="round" stroke-width=".42" d="m-30 593.54 36 6.94 36-2.17 36-11.89 36-3.57 36-2.57 36-.12 36-12 36-2.05 36 1.84 36 10.67 36-1.67 36-1.26 36-.17 36 5.68 36-3.03 36-13.36 36-12.49 36-8.5 36-4.25 36-15.46 36-10.87 36-7 36 8.23 36 .26 36 1.7h36l36 12.84 36 8.04 36 1.05 36-5.5 36-.4 36 4.18 36-3.88 36-6.55 36-6.17 36 9.61 36 6.36 36 7.62 36 1.39 36 15.99 36 14.82 36 12.72 36-.43 36 2.89 36 5.27 36 1.73" opacity=".12"/><path fill="none" stroke="#acb5aa" stroke-linecap="round" stroke-linejoin="round" stroke-width=".42" d="m-30 596.77 36 7.01 36-2.14 36-11.87 36-3.57 36-2.6 36-.16 36-12.07 36-2.13 36 1.76 36 10.58 36-1.76 36-1.33 36-.24 36 5.63 36-3.05 36-13.37 36-12.48 36-8.45 36-4.2 36-15.39 36-10.79 36-6.91 36 8.31 36 .35 36 1.77 36 .05 36 12.89 36 8.05 36 1.05 36-5.53 36-.45 36 4.12 36-3.97 36-6.63 36-6.26 36 9.53 36 6.29 36 7.54 36 1.35 36 15.97 36 14.81 36 12.73 36-.39 36 2.95 36 5.35 36 1.81" opacity=".12"/><path fill="none" stroke="#acb5aa" stroke-linecap="round" stroke-linejoin="round" stroke-width=".42" d="m-30 600.01 36 7.06 36-2.1 36-11.85 36-3.58 36-2.63 36-.2 36-12.13 36-2.2 36 1.66 36 10.5 36-1.84 36-1.41 36-.31 36 5.59 36-3.08 36-13.38 36-12.46 36-8.42 36-4.14 36-15.32 36-10.7 36-6.83 36 8.4 36 .43 36 1.84 36 .11 36 12.92 36 8.07 36 1.04 36-5.56 36-.49 36 4.05 36-4.04 36-6.72 36-6.34 36 9.44 36 6.21 36 7.48 36 1.3 36 15.94 36 14.81 36 12.75 36-.35 36 3 36 5.42 36 1.9" opacity=".11"/><path fill="none" stroke="#f1dba9" stroke-linecap="round" stroke-linejoin="round" stroke-width=".42" d="m-30 603.24 36 7.12 36-2.06 36-11.83 36-3.58 36-2.66 36-.25 36-12.19 36-2.28 36 1.58 36 10.41 36-1.93 36-1.49 36-.36 36 5.53 36-3.11 36-13.38 36-12.44 36-8.39 36-4.08 36-15.25 36-10.62 36-6.74 36 8.49 36 .5 36 1.92 36 .16 36 12.96 36 8.09 36 1.04 36-5.59 36-.54 36 3.99 36-4.12 36-6.81 36-6.43 36 9.36 36 6.13 36 7.42 36 1.25 36 15.92 36 14.8 36 12.77 36-.31 36 3.06 36 5.49 36 1.98" opacity=".1"/><path fill="none" stroke="#acb5aa" stroke-linecap="round" stroke-linejoin="round" stroke-width=".42" d="m-30 606.48 36 7.17 36-2.02 36-11.81 36-3.59 36-2.68 36-.3L222 581l36-2.36 36 1.5 36 10.32 36-2.01 36-1.57 36-.43 36 5.49 36-3.14 36-13.39 36-12.43 36-8.34 36-4.03 36-15.18 36-10.54 36-6.65 36 8.57 36 .59 36 1.99 36 .22 36 13 36 8.1 36 1.03 36-5.61 36-.6 36 3.93 36-4.2 36-6.88 36-6.52 36 9.27 36 6.05 36 7.36 36 1.21 36 15.89 36 14.79 36 12.79 36-.28 36 3.12 36 5.56 36 2.06" opacity=".09"/><path fill="none" stroke="#acb5aa" stroke-linecap="round" stroke-linejoin="round" stroke-width=".42" d="m-30 609.71 36 7.24 36-1.99 36-11.79 36-3.59 36-2.71 36-.34 36-12.32 36-2.44 36 1.42 36 10.23 36-2.1 36-1.64 36-.5 36 5.44 36-3.16 36-13.4 36-12.41 36-8.31 36-3.97 36-15.11 36-10.46 36-6.56 36 8.66 36 .67 36 2.06 36 .28 36 13.03 36 8.11 36 1.03 36-5.64 36-.64 36 3.87 36-4.28 36-6.97 36-6.61 36 9.19 36 5.97 36 7.3 36 1.16 36 15.86 36 14.8 36 12.8 36-.24 36 3.17 36 5.64 36 2.14" opacity=".08"/><path fill="none" stroke="#acb5aa" stroke-linecap="round" stroke-linejoin="round" stroke-width=".42" d="m-30 612.95 36 7.29 36-1.95 36-11.77 36-3.6 36-2.73 36-.39 36-12.38 36-2.51 36 1.33 36 10.14 36-2.19 36-1.71 36-.57 36 5.39 36-3.19 36-13.39 36-12.41 36-8.27 36-3.92 36-15.03 36-10.38 36-6.47 36 8.74 36 .76 36 2.13 36 .33 36 13.07 36 8.13 36 1.03 36-5.67 36-.69 36 3.8 36-4.35 36-7.06 36-6.7 36 9.1 36 5.91 36 7.23 36 1.11 36 15.84 36 14.79 36 12.82 36-.2 36 3.23 36 5.7 36 2.23" opacity=".08"/><path fill="none" stroke="#f1dba9" stroke-linecap="round" stroke-linejoin="round" stroke-width=".42" d="m-30 616.18 36 7.35 36-1.91 36-11.75 36-3.6 36-2.76 36-.44 36-12.44 36-2.59 36 1.24 36 10.06 36-2.27 36-1.8 36-.63 36 5.35 36-3.22 36-13.4 36-12.39 36-8.23 36-3.87 36-14.96 36-10.3 36-6.39 36 8.84 36 .84 36 2.2 36 .39 36 13.1 36 8.15 36 1.02 36-5.7 36-.73 36 3.74 36-4.43 36-7.15 36-6.78 36 9.01 36 5.83 36 7.17 36 1.06 36 15.81 36 14.79 36 12.83 36-.16 36 3.29 36 5.78 36 2.31" opacity=".07"/><path fill="none" stroke="#acb5aa" stroke-linecap="round" stroke-linejoin="round" stroke-width=".55" d="m241.88 562.85 3.38 12.86 8.25 11.05 10.23 8.27 5.66 5.83 9.91 4.88 7.74 5.88 10.43 8.33 9.9 11.11 5.32 12.89 11.53 12.84 2.8 10.99 12.92 8.2.78 5.78 12.8 4.89M75.3 589.48l8.65 9.9 7.71 7.1 5.61 5.2 10.64 5.08 6.74 6.8 6.18 9.57 10.14 12.06L139 658.3l5.62 12.23 8.73 9.84 11.28 7.04 3.71 5.17 6.37 5.1 10.04 6.86M654.13 542.3l4.69 6.11 13.45 4.9 1.89 5.62 10.9 7.94 12.31 10.74 1.9 12.73 7.75 12.97 7.65 11.34 15.07 8.61 3.25 6.06 9.32 4.89 4.52 5.67 10.89 8 7.16 10.8m392.58-129.11 13.77 4.98 7.09 6.47 8.93 9.15 5.94 11.77 4.85 13.08 11.65 12.47 4.88 10.23 7.41 7.41 9.27 5.34 6.17 4.99 13.13 6.53 5.05 9.22 10.22 11.82 8.98 13.09M96.29 574.56l5.93 7.54 11.94 10.37 5.8 12.54 2.96 13.06 11.05 11.66 11.44 9.02 8.42 6.36 2.29 4.95 10.81 5.44 4.79 7.6 8.64 10.43 13.52 12.58 1.15 13.05 10.37 11.61m-72.36-138.11 9.53 11.45 13.51 13 .87 12.67 12.79 10.62 8.54 7.8 4.2 5.55 8.26 4.92 10.98 6.2 3.74 8.82 14.7 11.5 6.56 13.02 6.63 12.64 5.21 10.56 13.53 7.73m740.46-173.53 9.51 13.11 4.84 11.96 14.92 9.43 1.91 6.69 7.67 5.04 12.57 5.25 8.66 7.22 8.91 10.04 3.29 12.36 7.68 13.1 7.95 11.91 9.22 9.36 5.7 6.63 13.49 5.02m-26.03-129.3 7.23 10.99 5.57 8.19 7.67 5.79 13.89 4.89 3.28 5.92 9.08 8.4 9.24 11.17 10.99 12.91 1.02 12.81 12.1 10.93 10.03 8.13 7.32 5.75 5.07 4.88 10.38 5.97M777.82 512.05l9.45 7.04 5.27 5.17 6.38 5.1 7.92 6.86 14.7 9.64 5.25 12.1 3.36 13.11 11.36 12.19 5.79 9.77 7.24 6.98 9.26 5.15 12.73 5.12 2.91 6.93 12.83 9.7m115.63-88.77 9.85 4.9 9.12 5.66 10.8 8 9.02 10.81 2.13 12.76 10.45 12.95 9.88 11.28 3.79 8.54 7.29 6.01 9.99 4.89 12.15 5.7 4.98 8.07 11.12 10.87 7.33 12.79M683.51 520.76l11.46 6.52 2.19 9.23 15.12 11.81 2.5 13.09 10.63 12.43 10.56 10.17 6.08 7.35 9.15 5.31 2.46 5 7.5 6.58 10.47 9.3 5.63 11.86 11.12 13.1 8.96 12.39m-639.05-84.17 5.68 10.43 6.49 12.58 10.17 13.05 6.01 11.61 6.98 8.94 10.42 6.31 11.5 4.94 7.67 5.47.88 7.68 10.32 10.49 5.55 12.61 12.89 13.03 6.16 11.56 11.24 8.88m-7.61-148.8 14.06 13.02.76 12.64 10.15 10.56 13.55 7.73 5.54 5.51 9.4 4.93 7.7 6.26 2.37 8.88 10.91 11.56 10.71 13.03 1.91 12.61 9.02 10.49 13.71 7.67 2.83 5.47M1581 592.58l3.13 11.92 11.58 9.35 7.41 6.64 5.71 5.02 11.38 5.28 4.25 7.29 8.04 10.1 11.25 12.4 5.27 13.09 11.6 11.87 1.54 9.29 9.36 6.57 9.63 5.01 11.15 5.31" opacity=".22"/><path fill="none" stroke="#acb5aa" stroke-linecap="round" stroke-linejoin="round" stroke-width=".55" d="m134.03 584.54 13 8.13 2 5.74 6.56 4.89 14.72 5.97 4.49 8.47 4.71 11.23 10.85 12.93 6.84 12.79 7.49 10.86 7.63 8.07 13.81 5.7 4.11 4.89 9.94 6.01 3.25 8.54M23.81 599.65l8.07 5.15 9.83 5.12 7.3 6.93 12.02 9.7 8.34 12.15 7.22 13.11 8.1 12.15 8.57 9.69 9.52 6.93 1.38 5.12 12.39 5.15 8.33 6.98 7.79 9.77 7.19 12.19M1361.6 538.91l8.93 5.71 10.84 8.07 5.31 10.86 8.62 12.79 9.09 12.93 5.2 11.23 4.96 8.46 9.68 5.97 9.6 4.89 4.21 5.74 12.12 8.14 8.6 10.93 9.44 12.82 7.79 12.9M519.14 568.43l5.49 9.29 6.3 11.87 11.83 13.09 11.76 12.4 1.77 10.1 10.64 7.28 4.51 5.28 12 5.03 8.65 6.63 9.45 9.36 4.81 11.92 9.89 13.1 6.32 12.36 6.4 10.03m271.67-198.49 13.33 12.62 6.33 13.03 7.35 11.55 8.78 8.88 7.13 6.26 10.35 4.93 2.57 5.51 7.69 7.73 12.38 10.56 3.25 12.65 9.85 13.01 12.69 11.51 2.61 8.8 5.7 6.21m270.72-109.05 11.54 12.61 10.83 10.49 3.43 7.67 12.16 5.47 5.8 4.94 6.83 6.31 6.65 8.95 12.35 11.61 6.89 13.05 7.17 12.57 6.92 10.43 10.85 7.6 6.16 5.44 8.56 4.95m-937.4-70.52 9.67 9.29 6.92 6.57 3.47 5.01 9.5 5.31 11.07 7.35 9.12 10.17 5.51 12.43 5.38 13.09 7.52 11.82 8.3 9.22 12.74 6.52 4.4 4.99 10.67 5.34 5.84 7.41M114.69 584.55l5.45 5.7 10.87 4.9 6.11 6.01 5.64 8.54 13.89 11.28 4.24 12.95 6.06 12.77 8.84 10.8 13.62 8 6.04 5.66 5.5 4.89 9.85 6.07 9.84 8.61 4.27 11.34m1076.13-169.08 10.5 5.15 3.84 6.99 10.32 9.77 6.09 12.19 8.33 13.11 7.12 12.1 12.62 9.63 4.17 6.86 4.98 5.1 8.53 5.18 9.53 7.04 10.65 9.84 8.45 12.23 10.35 13.12M1002 532.3l7.3 8.13 10.51 10.93 3.66 12.82 11.63 12.91 8.24 11.16 3.7 8.4 12.75 5.92 1.41 4.88 8.11 5.79 14.85 8.21 7.25 10.99 2.12 12.84 11.47 12.88 6.42 11.11M808.85 506.68l7.64 11.92 7.84 13.1 11.52 12.35 8.19 10.04 8.32 7.22 8.15 5.25.77 5.04 9.52 6.69 12.61 9.43 4.47 11.97 8.08 13.11 8.29 12.31 6.26 9.97 14.24 7.16m660.84-50.07 11.39 13.01 8.66 11.51 9.56 8.8 8.8 6.21 7.03 4.92 6.79 5.55 2.63 7.8 10.9 10.62 9.14 12.68 8.47 13 10.14 11.44 1.34 8.74 8.52 6.16 11.1 4.91m-473.25-195.73 11.44 10.43 7.21 7.6 5.59 5.44 8.22 4.94 11.89 6.37 8.28 9.02 6.28 11.67 3.01 13.05 13.77 12.55 8.95 10.36 4.47 7.53 5.69 5.41 10.16 4.96 9.94 6.42m-227.07-99.08 9.64 6.52 9.34 4.98 7.41 5.35 11.36 7.41 7.39 10.24 6.54 12.47 10.11 13.08 9.13 11.76 8.35 9.15 5.72 6.47 8.5 4.97 4.8 5.38 8.81 7.48 8.55 10.3M200.23 573.29l9.49 4.9 9.17 6.06 5.76 8.61 7.43 11.34 7.99 12.97 13.25 12.73 7.33 10.74 6.03 7.93 10.21 5.62 9.65 4.91 3.85 6.11 7.8 8.68 10.36 11.39 5.44 12.99m646.82-172.19 7.09 7.05 10.89 9.84 10.23 12.23 9.55 13.12 6.47 12.05 9.1 9.56 2.57 6.8 7.79 5.08 14.57 5.2 7.17 7.11 7.79 9.9 1.45 12.28 8.06 13.11 14.53 12.01m-587.2-90.51 9.72 10.99 3.81 12.84 6.74 12.89 7.84 11.1 9.65 8.33 10.07 5.88 10.2 4.88 7.81 5.83 3.73 8.27 6.69 11.05 13.64 12.87 5.51 12.87 6.07 11.04 8.03 8.26m842.67-137.79 11.53 13.1 6.16 12.32 4.25 9.96 11.76 7.16 9.76 5.23 7.09 5.06 4.84 6.75 7.62 9.5 9.9 12.01 5.64 13.11 11.26 12.27 7.4 9.9 4.9 7.1 10.77 5.2" opacity=".22"/><path fill="none" stroke="#acb5aa" stroke-linecap="round" stroke-linejoin="round" stroke-width=".55" d="m1590.79 597.7 7.07 11.44 11.58 8.74 10.07 6.16 5.35 4.91 10.58 5.59 9.62 7.86 4.17 10.69 7.86 12.71 10.66 12.98 6.63 11.39 10.02 8.67 6.72 6.11 2.67 4.9 9.27 5.63m-933.39-205 12.21 7.54 6.01 5.4 5.43 4.96 6.41 6.42 8.88 9.09 12.54 11.72 3.49 13.07 13.39 12.5 9.03 10.3 3.12 7.47 8.47 5.37 9.44 4.98 4.54 6.47 9.79 9.16M503 579.09l10.65 4.98 7.43 5.37 10.73 7.48 7.15 10.3 8.41 12.51 2.67 13.07 6.8 11.71 10.06 9.09 6.75 6.41 8.51 4.96 13.86 5.41.57 7.54 8.62 10.37 14.26 12.54m277.05-192.3 3.41 6.11 12.06 8.68 6.18 11.39 12.51 12.99 2.04 12.7 10.76 10.68 5.18 7.86 7.05 5.59 11.02 4.91 10.7 6.16 3.12 8.74 7.28 11.46 8.33 13 10.39 12.67M805.13 506.15l12.36 9.9 9 12.28.39 13.11 13.38 12.01 9.44 9.49 5.51 6.75 5.49 5.05 7.61 5.23 13.44 7.17 4.06 9.97 10.98 12.32 2.38 13.1 13.06 11.96 4.83 9.43m152.8-117.55 3.84 12.87 13.33 12.86 8.01 11.04 7.71 8.27 6.69 5.83 11.25 4.88 4.11 5.88 4.3 8.34 9.86 11.11 6.21 12.89 8.88 12.84 7.09 10.98 14.78 8.2 5.32 5.78" opacity=".22"/><path fill="none" stroke="#acb5aa" stroke-linecap="round" stroke-linejoin="round" stroke-width=".55" d="m510.26 577.08 9.81 12.28 6.75 9.89 9.63 7.1 4.61 5.2 11.77 5.08 3.92 6.81 8.21 9.57 13.74 12.06 9.08 13.11 5.15 12.23 4.56 9.83 14.18 7.04.86 5.17 7.85 5.1M127.21 585.37l.58 8.68 8.6 6.1 8.8 4.9 10.71 5.63 7.65 7.94 9.77 10.74 5.78 12.74 8.5 12.97 8.72 11.33 8.86 8.6 6.01 6.06 4.99 4.9 9.5 5.66 9.66 8M1497.36 589.3l9.74 5.37 8.14 4.97 12.79 6.48 5.6 9.16 5.13 11.77 11.92 13.07 5.6 12.47 6.3 10.23 9.46 7.41 12.14 5.34 2.96 4.99 10.5 6.53 8.86 9.22 8.59 11.82m-30.99-118.06 9.41 5.41 6.93 7.54 4.39 10.37 9.54 12.55 7.21 13.05 10.58 11.66 4.22 9.02 7.01 6.36 9.51 4.94 10.07 5.44 8.61 7.61 5.25 10.44 5.12 12.58 13.43 13.04M892.19 505.51l9.26 8.74 7.3 11.45 7.47 13.01 9.36 12.67 8.84 10.62 2.37 7.79 13.14 5.55 4.2 4.91 6.47 6.22 13.57 8.81 9.13 11.51 4.97 13.02 11.74 12.64 2.89 10.55m-89.85-132.13 8.65 12.32 5.44 13.11 14.2 11.96 2.02 9.42 11.4 6.69 3.15 5.04 10.26 5.25 6.64 7.23 7.65 10.04 11.27 12.36 5.23 13.1 9.97 11.91 7.41 9.36 8.05 6.63m-215.02-133.1 8.38 12.84 12.36 10.99 5.32 8.19 9.89 5.79 2.71 4.88 13.86 5.93 4.59 8.4 9.77 11.17 6.16 12.91 11.19 12.82 4.4 10.92 6.72 8.13 10.95 5.74 3.56 4.89m650.46-42.3 3.96 9.83 10.34 7.04 8.27 5.17 7.38 5.1 5.94 6.87 5.96 9.63 8.84 12.11 8.42 13.11 8.3 12.19 11.14 9.76 5.8 6.98 5.9 5.15 12.71 5.12 7.81 6.93m-429.3-180.67 11.32 6.05 7.47 4.9 5.87 5.66 8.12 8.01 12.76 10.81 5.97 12.76 5.35 12.95 11.39 11.28 8.78 8.53 3.39 6.01 13.64 4.89 7.93 5.71 3 8.07 8.14 10.87m-205.47-113.09 1.71 4.99 14.02 6.53 1.51 9.22 10.79 11.82 6.61 13.09 11.97 12.43 6.38 10.17 9.92 7.34 3.37 5.31 7.6 5.01 9.4 6.58 6.53 9.29 10.13 11.88 12.23 13.09" opacity=".22"/><path fill="none" stroke="#acb5aa" stroke-linecap="round" stroke-linejoin="round" stroke-width=".55" d="m1591.88 589.71 8.04 7.61 6.99 10.43 7.63 12.58 9.51 13.05 6.9 11.6 13.54 8.95 3.87 6.3 5.04 4.94 10.93 5.48 12.53 7.67 2.57 10.5 6.23 12.61 10.14 13.03 6.28 11.56m-419.25-200.56 8.21 11.51 13.23 13.02 5.22 12.64 6.52 10.55 7.99 7.73 13.71 5.51 4.62 4.93 6.71 6.26 8.07 8.89 9.55 11.56 10.86 13.03 2.42 12.61 14.22 10.49 7.41 7.66M797.33 509.81l7.6 13.1 8.36 11.91 6.42 9.36 8.56 6.63 10.06 5.02 4.17 5.28 14.11 7.29 6.77 10.11 9.61 12.4 3.63 13.09 12.45 11.87 3.97 9.28 5.68 6.58 14.02 5m-395.92-58.22 4.87 10.93 10.79 8.12 5.79 5.75 11.52 4.89 11.03 5.96 7.07 8.48 2.41 11.23 9 12.93 10.08 12.79 7.08 10.86 8.47 8.06 5.11 5.7 8.54 4.89 14.84 6.02M306.91 576.3l6.23 6.97 11.18 5.15 10.29 5.12 9.14 6.93 2.29 9.71 7.37 12.15 10.15 13.11 6.65 12.14 7.82 9.7 15.08 6.92 7.71 5.12 1.11 5.15 7.33 6.98 13.46 9.78m444.19-175.54 8.47 4.9 12.37 5.7 5.29 8.07 10.17 10.87 7.88 12.8 2.52 12.93 8.95 11.21 12.52 8.47 3.78 5.96 13.35 4.89.55 5.75 9.85 8.14 10.53 10.93 6.27 12.82m435.07-81.33 7.18 6.58 8.31 9.3 7.59 11.87 15.36 13.09 8.31 12.39 5.21 10.1 8.49 7.28 9.41 5.28 8.81 5.02 5.01 6.64 7.98 9.37 4.39 11.92 6.94 13.1 8.81 12.35m-496.63-167.07 10.19 10.5 2.26 12.61 11.74 13.04 5.35 11.55 13.19 8.87 4.47 6.26 8.26 4.92 6.92 5.52 9.28 7.74 10.93 10.56 6.87 12.64 9.45 13.02 3.34 11.5 5.83 8.8" opacity=".22"/><path fill="none" stroke="#acb5aa" stroke-linecap="round" stroke-linejoin="round" stroke-width=".55" d="m809.07 508.98 9.35 13.03 10.36 12.61 5.21 10.48 9.96 7.67 7.15 5.47 4.86 4.94 7.02 6.31 7.72 8.96 13.06 11.61 5.25 13.05 5.16 12.57 11.27 10.42 11.5 7.6 1.25 5.44m-620.73-70.47 5.23 11.87 8.38 9.28 8.01 6.58 10.09 5 8.93 5.31 6.7 7.36 10.13 10.17 9 12.44 7.92 13.09 5.13 11.81 12.13 9.21 4.19 6.52 12.16 4.99 5.82 5.34M146.54 583.09l9.59 8.06 8.45 5.7 11.08 4.89 3.15 6.02 9.77 8.54 5.65 11.29 12.84 12.95 4.82 12.76 5.02 10.8 8.59 8 12.58 5.65 4.4 4.9 6.73 6.07 9.94 8.61m1178.31-123.14 7.31 5.12 12.62 5.15 3.05 6.98 14.22 9.78 7.67 12.19 3.9 13.11 7.95 12.1 13.28 9.63 1.71 6.86 11.07 5.1 8.86 5.17 5.22 7.05 13.36 9.84.91 12.24" opacity=".22"/><path fill="url(#d)" d="M0 480h1600v190H0z"/><path fill="#273e55" stroke="#acb5aa" stroke-linecap="round" stroke-linejoin="round" stroke-width=".75" d="m-30 560.48 12-.5 12-.74 12 1.78 12 6.39 12 9.62 12 8.8 12 5.02 12 2.04 12 2.25 12 4.4 12 5.25 12 3.53 12 1.54 12 2.46 12 6.76 12 11.27 12 12.46 12 10.01 12 6.98 12 6.21 12 7.23 12 6.98 12 3.55 12-1.28 12-3.74 12-2.06 12 1.64 12 3.63 12 2.56 12 .61 12 .73 12 3.09 12 4.64 12 2.56 12-2.4 12-6.56 12-7.03 12-4.62 12-2.69 12-3.21 12-4.61 12-3.71 12 .41 12 5.01 12 6.42 12 3.94 12 .48 12-.61 12 .88 12 2.14 12 .76 12-2.21 12-3.26 12-.37 12 4.65 12 7.92 12 7.46 12 5.12 12 4.15 12 5.47 12 6.57 12 4.56 12-.37 12-4.75 12-5.42 12-2.78 12-.25 12-.44 12-2.44 12-3.12 12-.99 12 1.85 12 1.82 12-2.16 12-7.31 12-9.95 12-9.19 12-7.65 12-8.16 12-10.44 12-11.38 12-8.66 12-3.64 12-.16 12-.59 12-3.46 12-5.22 12-4.23 12-2.42 12-2.82 12-5.87 12-8.55 12-7.6 12-3.07 12 1.63 12 3.36 12 2.37 12 1.73 12 3.53 12 6.33 12 6.75 12 3.35 12-1.48 12-3.9 12-2.51 12 .27 12 1.16 12-.35 12-1.57 12 .11 12 3.93 12 6.31 12 4.62 12 .03 12-3.74 12-4.38 12-3.24 12-3.46 12-6.16 12-8.86 12-8.31 12-4.14 12 .48 12 2.03 12 .28 12-1.78 12-1.42 12 .68 12 1.38 12-1.16 12-5.07 12-6.53 12-3.84 12 .87 12 3.9 12 4.01 12 3.43 12 5.07 12 8.82 2 414.08H-30Z"/><path fill="none" stroke="#acb5aa" stroke-linecap="round" stroke-linejoin="round" stroke-width=".42" d="m-30 564.17 36 .6 36 24.88 36 9.39 36 13.27 36 10.85 36 33.81 36 20.5 36 9.31 36-4.13 36 6.82 36 8.46 36-6.42 36-14.38 36-11.59 36 11.75 36 3.73 36 3.69 36-5.92 36 19.95 36 14.67 36 10.72 36-12.98 36-3.14 36-2.24 36-7.62 36-26.74 36-29.9 36-12.38 36-9.19 36-9.38 36-21.94 36 1.99 36 7.69 36 16.47 36-7.87 36 1.08 36 2.43 36 10.92 36-11.42 36-18.56 36-12.05 36 .44 36 .55 36-12.84 36 .87 36 12.46" opacity=".12"/><path fill="none" stroke="#acb5aa" stroke-linecap="round" stroke-linejoin="round" stroke-width=".42" d="m-30 567.87 36 .65 36 24.95 36 9.47 36 13.36 36 10.93 36 33.9 36 20.57 36 9.37 36-4.09 36 6.84 36 8.46 36-6.45 36-14.43 36-11.65 36 11.68 36 3.65 36 3.6 36-6.01 36 19.88 36 14.6 36 10.67 36-13.02 36-3.14 36-2.23 36-7.58 36-26.68 36-29.84 36-12.3 36-9.09 36-9.3 36-21.85 36 2.06 36 7.74 36 16.51 36-7.85 36 1.07 36 2.41 36 10.88 36-11.49 36-18.63 36-12.14 36 .35 36 .47 36-12.92 36 .8 36 12.42" opacity=".12"/><path fill="none" stroke="#acb5aa" stroke-linecap="round" stroke-linejoin="round" stroke-width=".42" d="m-30 571.57 36 .7 36 25.02 36 9.55 36 13.45 36 11.02 36 33.98 36 20.64 36 9.43 36-4.05 36 6.86 36 8.45 36-6.47 36-14.47 36-11.71 36 11.6 36 3.56 36 3.51 36-6.09 36 19.8 36 14.53 36 10.62 36-13.04 36-3.15 36-2.21 36-7.55 36-26.63 36-29.76 36-12.22 36-9.01 36-9.21 36-21.77 36 2.13 36 7.8 36 16.55 36-7.83 36 1.07 36 2.38 36 10.83 36-11.55 36-18.71 36-12.22 36 .26 36 .38 36-12.99 36 .74 36 12.36" opacity=".11"/><path fill="none" stroke="#f1dba9" stroke-linecap="round" stroke-linejoin="round" stroke-width=".42" d="m-30 575.27 36 .75 36 25.09 36 9.63 36 13.53 36 11.11 36 34.07 36 20.71 36 9.49 36-4.01 36 6.88 36 8.45 36-6.49 36-14.52 36-11.78 36 11.53 36 3.47 36 3.43 36-6.18 36 19.72 36 14.47 36 10.57 36-13.07 36-3.16 36-2.2 36-7.51 36-26.57 36-29.7 36-12.13 36-8.93 36-9.12 36-21.69 36 2.21 36 7.85 36 16.59 36-7.81 36 1.06 36 2.36 36 10.78 36-11.61 36-18.79 36-12.3 36 .17 36 .29 36-13.06 36 .67 36 12.32" opacity=".1"/><path fill="none" stroke="#acb5aa" stroke-linecap="round" stroke-linejoin="round" stroke-width=".42" d="m-30 578.96 36 .81 36 25.16 36 9.71 36 13.62 36 11.2 36 34.14 36 20.79 36 9.55 36-3.97 36 6.9 36 8.45 36-6.52 36-14.57 36-11.84 36 11.46 36 3.39 36 3.34 36-6.27 36 19.64 36 14.41 36 10.52 36-13.1 36-3.17 36-2.18 36-7.48 36-26.52 36-29.62 36-12.06 36-8.84 36-9.03 36-21.61 36 2.28 36 7.92 36 16.62 36-7.8 36 1.06 36 2.34 36 10.73 36-11.67 36-18.86 36-12.4 36 .09 36 .21 36-13.15 36 .61 36 12.27" opacity=".09"/><path fill="none" stroke="#acb5aa" stroke-linecap="round" stroke-linejoin="round" stroke-width=".42" d="m-30 582.66 36 .86 36 25.23 36 9.79 36 13.71 36 11.28 36 34.23 36 20.86 36 9.61 36-3.93 36 6.92 36 8.44 36-6.54 36-14.61 36-11.9 36 11.38 36 3.3 36 3.25 36-6.35 36 19.56 36 14.34 36 10.47 36-13.12 36-3.18 36-2.17 36-7.44 36-26.46 36-29.56 36-11.97 36-8.75 36-8.95 36-21.52 36 2.35 36 7.97 36 16.66 36-7.78 36 1.06 36 2.31 36 10.69 36-11.74 36-18.94 36-12.48h36l36 .12 36-13.22 36 .54 36 12.23" opacity=".08"/><path fill="none" stroke="#acb5aa" stroke-linecap="round" stroke-linejoin="round" stroke-width=".42" d="m-30 586.36 36 .91 36 25.3 36 9.87 36 13.79 36 11.38 36 34.31 36 20.94 36 9.65 36-3.88 36 6.93 36 8.45 36-6.57 36-14.65 36-11.97 36 11.31 36 3.21 36 3.17 36-6.44 36 19.49 36 14.27 36 10.42 36-13.16 36-3.18 36-2.15 36-7.41 36-26.41 36-29.48 36-11.9 36-8.66 36-8.86 36-21.44 36 2.42 36 8.03 36 16.71 36-7.77 36 1.05 36 2.29 36 10.64 36-11.8 36-19.02 36-12.56 36-.09 36 .04 36-13.3 36 .48 36 12.17" opacity=".08"/><path fill="none" stroke="#f1dba9" stroke-linecap="round" stroke-linejoin="round" stroke-width=".42" d="m-30 590.06 36 .96 36 25.37 36 9.95 36 13.88 36 11.46 36 34.4 36 21.01 36 9.71 36-3.84 36 6.95 36 8.44 36-6.59 36-14.7 36-12.02 36 11.22 36 3.14 36 3.07 36-6.52 36 19.41 36 14.21 36 10.37 36-13.19 36-3.19 36-2.14 36-7.37 36-26.35 36-29.42 36-11.81 36-8.58 36-8.77 36-21.36 36 2.5 36 8.08 36 16.75 36-7.75 36 1.05 36 2.26 36 10.59 36-11.86 36-19.09 36-12.65 36-.18 36-.05 36-13.38 36 .42 36 12.12" opacity=".07"/><path fill="none" stroke="#acb5aa" stroke-linecap="round" stroke-linejoin="round" stroke-width=".55" d="m1156.49 592.59 2.25 12.86 9.85 11.05 12.38 8.27 2.81 5.83 11.3 4.88 5.71 5.88 12.04 8.33 1.81 11.11 11.58 12.89 5.71 12.84 7.3 10.99 8.35 8.19 10.76 5.79 5.38 4.89m24.65-109.6 4.76 9.9 7.26 7.1 8.53 5.2 7.03 5.08 6.06 6.8 15.44 9.57 1.15 12.05 7.65 13.12 14.69 12.23 6.97 9.83 6.79 7.05 9.43 5.17 7.95 5.1 2.91 6.86m29.35-139.2 5.9 6.11 14.36 4.9 7.24 5.63 7.81 7.93 5.54 10.74 4.77 12.74 8.97 12.97 14.12 11.33 2.94 8.61 8.8 6.06 10.21 4.9 3.42 5.66 12.68 8 3.39 10.8M347.01 687.99l7.14 4.98 10.23 6.47 5.71 9.15 12.55 11.77 7.61 13.08 3.13 12.47 9.23 10.23 11.52 7.41 2.41 5.34 9.16 4.99 9.65 6.53 5.43 9.22 9.84 11.82 6.78 13.09m60.55-143.33 2.87 7.54 10.94 10.36 9.49 12.54 6.91 13.06 10.72 11.67 3.69 9.01 13.58 6.36 6.52 4.95 5.92 5.44 8.57 7.61 7.09 10.43 5.07 12.57 11.81 13.05 6.99 11.61m757.22-210.21 9.62 11.45 3.06 13 9.76 12.67 11.41 10.62 8.67 7.8 3.64 5.55 6.16 4.92 10.27 6.2 7.2 8.82 12.63 11.5 7.28 13.02 7.76 12.64 3.63 10.56 9.1 7.73m-221.01-132.51 7.91 13.11 2.82 11.96 7.42 9.43 14.32 6.69 1.44 5.04 9.22 5.25 14.13 7.22 3.01 10.04 11.97 12.36 7.42 13.1 5.64 11.91 11.18 9.36 2.4 6.63 11.93 5.03m-902.68-63.16 10.93 10.99 3.62 8.19 13.32 5.79 7.92 4.89 5.05 5.92 5.76 8.4 13.6 11.17 7.45 12.91 2.5 12.81 7.74 10.93 9.73 8.13 8.19 5.75 6.64 4.88 8.44 5.97m472.49-179.52 8.55 7.04 12.98 5.17 5.6 5.1 3.05 6.87 12.19 9.63 8.26 12.1 3.68 13.12 9.29 12.19 10.62 9.76 5.05 6.99 12.61 5.14 9.03 5.13 6.32 6.92 6.47 9.7M455.1 671.72l.43 4.9 14.79 5.66 3.88 8 11.65 10.81 9.09 12.76 5.07 12.95 8.61 11.28 6.88 8.54 7.22 6.01 9.66 4.89 4.81 5.71 11.31 8.07 10.4 10.86 2.85 12.79" opacity=".22"/><path fill="none" stroke="#acb5aa" stroke-linecap="round" stroke-linejoin="round" stroke-width=".55" d="m349.27 683.97 7.41 6.53 10.47 9.22 1.81 11.82 9.17 13.09 11.9 12.43 6.77 10.17 10.7 7.35 1.22 5.3 11.77 5.01 8.12 6.58 6.85 9.29 10.47 11.87 6.94 13.1 11.43 12.39m852.52-209.83 10.6 10.43 4.06 12.58 8.5 13.04 13.35 11.61 3.13 8.95 12.09 6.31 3.93 4.94 9.56 5.47 5.16 7.67 12.94 10.5 2.2 12.61 13.87 13.03 8.96 11.56 2.75 8.88m10.07-174.56 7.39 13.02 6.59 12.64 9.44 10.55 8.5 7.74 12.63 5.51 4.36 4.92 9.89 6.26 2.58 8.88 11.66 11.56 3.79 13.04 10.48 12.61 11.09 10.48 10.08 7.67 7.51 5.48m-158.61-99.25 7.99 11.92 1.16 9.36 11.14 6.63 10.57 5.02 2.27 5.28 8.2 7.29 14.47 10.1 2.53 12.4 11.02 13.1 4.72 11.86 12.77 9.29 6.43 6.58 7.58 5 7.6 5.31m-592.35-51.55 6.28 8.13 6.01 5.74 12.72 4.89 9.34 5.97 9.51 8.47 5.67 11.23 8.02 12.93 9.16 12.79 5.99 10.86 4.83 8.06 11.01 5.71 10.38 4.89 8.74 6.01 5.36 8.54m-557.74-117.5 7.65 5.15 8.83 5.12 9.96 6.93 9.71 9.7 3.72 12.15 10.23 13.11 4.04 12.15 13.71 9.69 2.86 6.93 7.14 5.12 9.53 5.14 9.38 6.99 9.63 9.77 7.89 12.19m137.91-67.36 9.98 5.71 8.98 8.06 10.98 10.87 5.33 12.79 9.34 12.93 4.17 11.22 9.82 8.47 10.08 5.97 5.81 4.88 5.6 5.75 13.21 8.14 7.23 10.92 4.52 12.82 9.72 12.91m332.81-257.88 7.34 9.3 12.06 11.87 8.75 13.09 3.32 12.39 5.95 10.1 10.53 7.29 5.05 5.28 10.23 5.02 13.1 6.64 7.27 9.36 1.85 11.92 11.08 13.1 5.64 12.35 10.59 10.03m179.02-158.09 8.21 12.62 10.04 13.03 8.47 11.56 7.33 8.87 2.22 6.26 14.81 4.93 3.74 5.51 10.64 7.74 8.08 10.55 9.5 12.65 4.45 13.01 8.11 11.51 4.59 8.81 8.25 6.2m-736.41-3.84 7.75 12.61 8.72 10.49 7.96 7.67 3.6 5.48 10.2 4.93 10.56 6.31 5.43 8.96 8.47 11.61 8.57 13.04 8.75 12.58 9.85 10.43 8.1 7.6 6.61 5.44 7.25 4.94M108.36 613.31l9.24 9.29 12.81 6.58 3.63 5 13.38 5.31 6.04 7.36 8 10.16 3.56 12.44 14.18 13.09 1.89 11.81 13.17 9.22 3.97 6.52 10.14 4.99 10.72 5.34 2.09 7.42" opacity=".22"/><path fill="none" stroke="#acb5aa" stroke-linecap="round" stroke-linejoin="round" stroke-width=".55" d="m1177.43 611.45 10.81 5.7 8.05 4.89 5.76 6.02 13.84 8.54 5.9 11.28 3.18 12.95 12.72 12.76 7.14 10.81 7.9 7.99 4.94 5.67 11.28 4.89 7.41 6.06 5.9 8.61 10.64 11.34m-79.46-123.15 12.01 5.15 6.67 6.98 6.95 9.77 9.47 12.2 7.28 13.11 4.61 12.1 9.09 9.63 6.45 6.86 14.49 5.1 2.72 5.17 11.47 7.05 5.97 9.84 11.8 12.23 1.53 13.11M874.5 688.29l7.12 8.13 1.96 10.93 12.4 12.82 6.28 12.91 9.04 11.16 7.63 8.4 4.58 5.92 10.53 4.88 5.89 5.79 8.19 8.21 12.86 10.99 9.09 12.84 2.59 12.89 13.66 11.1m609.92-265.06 8.12 11.91 6.29 13.1 9.53 12.36 4.03 10.03 6.9 7.22 10.51 5.25 7.9 5.04 4.94 6.7 8.99 9.43 8.11 11.96 6.31 13.11 8.25 12.32 9.79 9.96 7.51 7.16M591.98 677.49l14.5 13.02 6.18 11.5 10.17 8.81 7.83 6.2 1.92 4.92 10.7 5.55 7.17 7.8 11.99 10.62 8.31 12.68 3.8 13 9.42 11.45 5.72 8.74 5.94 6.15 14.67 4.91m715.15-221.66 5.48 10.42 9.5 7.61 9.72 5.43 9.13 4.95 6.4 6.37 7.91 9.02 9.5 11.66 7.64 13.06 5.88 12.54L1507 672.6l7.55 7.54 6.2 5.41 7.9 4.96 8.71 6.41M527.92 683.44l7.23 6.52 11.3 4.99 10.32 5.34 6.79 7.41 10.16 10.24 4.56 12.47 7.79 13.08 4.35 11.77 9.28 9.15 6.28 6.46 13.18 4.98 5.32 5.37 7.62 7.48 11.92 10.3m772.01-212.33 2.14 4.9 7.55 6.06 12.61 8.61 3.6 11.34 7.19 12.97 15 12.74 5.88 10.74 4.27 7.93 10.75 5.62 9.36 4.9 5.98 6.11 6.41 8.68 13.89 11.4 5.46 12.98M31.03 571.54l8 7.05 7.08 9.83 7.82 12.24 3.77 13.11 12.69 12.06 5.55 9.56 7.38 6.8 9.2 5.08 10.31 5.2 5.97 7.1 9.64 9.91 6.05 12.28 5.53 13.11 11 12m-26.87-105.21 2.96 10.99 6.5 12.84 9.25 12.89 13.09 11.1 6.18 8.33 3.88 5.88 14.18 4.88 7.98 5.83 7.34 8.27 1.45 11.05 12.34 12.87 5.69 12.86 9.54 11.05 10.81 8.26" opacity=".22"/><path fill="none" stroke="#acb5aa" stroke-linecap="round" stroke-linejoin="round" stroke-width=".55" d="m592.8 675.38 14.73 13.11 2.91 12.32 11.46 9.96 5.99 7.16 10.92 5.22 2.8 5.06 10.98 6.75 9.47 9.5 8.12 12.02 9.19 13.11 8.76 12.27.65 9.9 8.36 7.1 14.31 5.19m309.74-188.61 14.23 11.44 5.32 8.74 8.28 6.16 11.4 4.91 1.6 5.58 7.8 7.87 14.34 10.69 7.36 12.7 3.45 12.99 9.77 11.39 5.03 8.67 14.28 6.11 1.84 4.9 9.99 5.63m-121.93-110.15 7.38 7.54 9.83 5.4 6.03 4.96 2.59 6.42 10.79 9.09 11.86 11.72 4.24 13.07 11.18 12.5 3.16 10.3 12.83 7.47 3.5 5.37 9.51 4.98 7.9 6.47 5.33 9.16M147.13 619.06l6.48 4.97 9.32 5.38 6.37 7.48 8.05 10.3 6.14 12.51 8.01 13.07 13.89 11.71 4.9 9.08 7.05 6.41 9.31 4.96 10.46 5.41 1.72 7.55 7.71 10.36 11.26 12.55m777.19-133.42 6 6.11 12.57 8.68 5.2 11.4 10.98 12.99 6.62 12.7 7.5 10.68 6.34 7.86 12.04 5.58 3.48 4.91 11.76 6.16 7.99 8.75 4.17 11.45 8.59 13.01 7.28 12.67m407.84-182.84 8.66 9.91 4.97 12.28 11.57 13.11 4.77 12 7.3 9.5 13.8 6.74 8.11 5.06 5.96 5.22 8.16 7.17 5.88 9.97 6.2 12.32 9.29 13.11 9.73 11.96 9.76 9.42m-241.84-123.1 11.48 12.86 3.93 12.87 8.99 11.04 11.67 8.26 10.09 5.83 7.52 4.89 3.61 5.87 13.45 8.34 2.78 11.11 11.12 12.89 3.4 12.84 14.41 10.99 4.47 8.19 7.7 5.79m-395.26-111.94 10.36 12.28 8.14 9.89 2.01 7.1 11.65 5.2 5.34 5.08 12.75 6.81 5.33 9.57 4.75 12.06 8.45 13.11 12.34 12.23 7.23 9.83 9.21 7.04 2.34 5.17 9.3 5.1m43.11-103.3 2.19 8.67 14.46 6.11 6.74 4.9 8.71 5.63 7.68 7.93 3.68 10.75 7.83 12.74 14.15 12.96 1.69 11.34 9.65 8.6 11.18 6.06 3.28 4.89 8.82 5.67 9.49 8m-1200.9-56.14 3.15 5.37 13.82 4.97 2.85 6.48 11.04 9.15 9.31 11.77 3.78 13.08 12.99 12.47 7.16 10.23 6.12 7.41 6.72 5.34 5.86 4.99 7.58 6.53 8.15 9.22 10.58 11.82m262.4-106.53 7.01 5.41 3.42 7.54 13.46 10.37 5.41 12.54 5.4 13.06 6.16 11.66 14.78 9.01 6.86 6.36 7.37 4.95 7.9 5.44 3.72 7.61 14.12 10.43 6.33 12.58 3.59 13.05m121.54-112.63 10.29 8.75 9.07 11.45 1.54 13.01 11.59 12.67 4.9 10.61 12.62 7.8 5.34 5.55 8.06 4.91 11.37 6.21 7.01 8.82 4.47 11.51 7.4 13.02 12.75 12.64 7.5 10.55M324.78 680.1l14.66 12.32 7.28 13.1 2.3 11.96 8.35 9.43 8.05 6.68 9.11 5.04 8.74 5.25 4.93 7.23 10.63 10.04 7.49 12.36 10.27 13.1 5.75 11.92 7.33 9.35 6.66 6.63m16.07-145.86 7.55 12.84 6.03 10.99 12.09 8.19 6.71 5.79 8.99 4.88 6.83 5.93 8.2 8.4 6.34 11.17 13.93 12.92 2.66 12.81 9.46 10.92 6.51 8.13 10.14 5.74 5.72 4.89M60.75 597.18l10.22 9.83 8.96 7.04.76 5.17 13.97 5.1 8.79 6.87 5.18 9.64 8.36 12.1 10.63 13.12 2.41 12.19 7.96 9.76 13.93 6.98 6.25 5.14 3.06 5.13 12.75 6.92m692.81-11.58 12.47 6.06 5.53 4.89 5.33 5.67 7.27 8 15.1 10.81 2.99 12.77 10.81 12.95 10.26 11.27 7.4 8.54 4.26 6 7.81 4.9 8.41 5.7 9.52 8.07 6.15 10.88m223.6-207.3 12.21 4.99 6.13 6.53 4.57 9.22 14.27 11.82 3.13 13.09 11.62 12.43 3.74 10.17 7.87 7.34 8.46 5.31 13.21 5.01 6.94 6.58 8.73 9.29 5.91 11.88 5.73 13.09M22.19 564.22l5.53 7.61 11.89 10.43 2.06 12.58 12.9 13.05 2.82 11.61 10.34 8.94 7.06 6.31 9.25 4.93 10.08 5.48 5.39 7.67 7.59 10.5 12.51 12.61 1.45 13.04 10.32 11.55" opacity=".22"/><path fill="none" stroke="#acb5aa" stroke-linecap="round" stroke-linejoin="round" stroke-width=".55" d="m326.7 679.32 9.1 11.51 8.67 13.01 8.06 12.65 1.02 10.55 11.27 7.73 8.12 5.5 11.38 4.93 4.39 6.26 8.85 8.89 5.08 11.56 7.78 13.03 9.24 12.61 6.64 10.49 10.91 7.66M3.92 558.1l2.85 13.1 9.53 11.91 10.57 9.36 1.66 6.63 13.93 5.02 5.11 5.28 6.15 7.29 13.21 10.11 1.89 12.4 10.56 13.09 12.33 11.87 7.21 9.28 6.38 6.58 9.48 5m1472.94-118.3 5.54 10.92 4.9 8.13 8.5 5.74 10.6 4.89 6.88 5.97 9.14 8.48 5.65 11.22 13.39 12.94 6.29 12.78 9.19 10.86 3.18 8.06 9.32 5.7 9 4.9 7.8 6.01m-669.7-65.82 10.29 6.98 5.25 5.14 11.27 5.13 5.41 6.92 3.05 9.71 9.81 12.15 9.15 13.11 6.54 12.15 11.2 9.69 3.24 6.92 10.34 5.12 9.33 5.15 12.02 6.99 3.38 9.77m-694.21-57.7 7.14 4.89 9.63 5.71 5.43 8.07 9.21 10.87 3.63 12.79 11.69 12.93 7.94 11.22 4.56 8.46 9.22 5.97 9.12 4.89 7.13 5.74 8.3 8.14 3.9 10.93 14.92 12.82" opacity=".22"/><path fill="none" stroke="#acb5aa" stroke-linecap="round" stroke-linejoin="round" stroke-width=".55" d="m1595.47 562.63 9.71 6.58 5.37 9.29 5.67 11.88 10.89 13.09 9.45 12.39 8.19 10.1 4.25 7.28 8.19 5.28 8.7 5.02 10.88 6.64 3.97 9.37 6.74 11.92 8.23 13.1 10.78 12.35M633.84 673.83l2.19 10.49 8.43 12.62 9.14 13.03 7.02 11.55 7.11 8.87 9.82 6.26 5.8 4.92 7.44 5.52 12.87 7.74 10.01 10.56 1.81 12.65 14.72 13.01 1.64 11.5 8.42 8.81m357.68-233.03 12.95 13.04 7.88 12.61 6.02 10.48 11.4 7.67 4.71 5.47 6.17 4.93 7.09 6.32 12.44 8.95 8.86 11.62 2.22 13.05 11.65 12.57 5.84 10.42 13.93 7.6 5.7 5.44" opacity=".22"/><path fill="none" stroke="#acb5aa" stroke-linecap="round" stroke-linejoin="round" stroke-width=".55" d="m646.91 693.99 9.03 11.87 9.58 9.28 3.78 6.58 11.36 5 6.76 5.31 10.94 7.36 2.16 10.17L712.18 762l6.75 13.08 6.78 11.82 6.87 9.21 13.51 6.52 6.39 4.99 10.09 5.34m158.34-153.03 14.37 8.06 2.56 5.7 9.17 4.89 10.25 6.01 8.81 8.55 4.96 11.28 7.35 12.96 9.52 12.76 9.39 10.8 6.48 7.99 7.69 5.66 11.83 4.9 5.84 6.06 5.31 8.61M313.89 687.2l2.92 5.12 14.3 5.15 6.15 6.99 7.97 9.77 5.82 12.2 10.83 13.11 5.77 12.1 9.73 9.62 8.76 6.86 4.01 5.1 12.19 5.17 6.78 7.05 6.59 9.84 5.9 12.24" opacity=".22"/><path fill="#697f90" stroke="#acb5aa" stroke-linecap="round" stroke-linejoin="round" stroke-width=".7" d="M-100 650q550-160 1050 5t750-45v440H-100Z" opacity=".9"/><path fill="none" stroke="#acb5aa" stroke-linecap="round" stroke-linejoin="round" stroke-width=".45" d="M-100 650q550-155 1050 8t750-44" opacity=".19"/><path fill="none" stroke="#acb5aa" stroke-linecap="round" stroke-linejoin="round" stroke-width=".45" d="M-100 654q550-154 1050 8t750-43" opacity=".19"/><path fill="none" stroke="#acb5aa" stroke-linecap="round" stroke-linejoin="round" stroke-width=".45" d="M-100 658q550-153 1050 8t750-42" opacity=".19"/><path fill="none" stroke="#acb5aa" stroke-linecap="round" stroke-linejoin="round" stroke-width=".45" d="M-100 662q550-152 1050 8t750-41" opacity=".19"/><path fill="none" stroke="#acb5aa" stroke-linecap="round" stroke-linejoin="round" stroke-width=".45" d="M-100 666q550-151 1050 8t750-40" opacity=".19"/><path fill="none" stroke="#acb5aa" stroke-linecap="round" stroke-linejoin="round" stroke-width=".45" d="M-100 670q550-150 1050 8t750-39" opacity=".19"/><path fill="none" stroke="#acb5aa" stroke-linecap="round" stroke-linejoin="round" stroke-width=".45" d="M-100 674q550-149 1050 8t750-38" opacity=".19"/><path fill="none" stroke="#acb5aa" stroke-linecap="round" stroke-linejoin="round" stroke-width=".45" d="M-100 678q550-148 1050 8t750-37" opacity=".19"/><path fill="none" stroke="#acb5aa" stroke-linecap="round" stroke-linejoin="round" stroke-width=".45" d="M-100 682q550-147 1050 8t750-36" opacity=".19"/><path fill="none" stroke="#acb5aa" stroke-linecap="round" stroke-linejoin="round" stroke-width=".45" d="M-100 686q550-146 1050 8t750-35" opacity=".19"/><path fill="none" stroke="#acb5aa" stroke-linecap="round" stroke-linejoin="round" stroke-width=".45" d="M-100 690q550-145 1050 8t750-34" opacity=".19"/><path fill="none" stroke="#acb5aa" stroke-linecap="round" stroke-linejoin="round" stroke-width=".45" d="M-100 694q550-144 1050 8t750-33" opacity=".19"/><path fill="none" stroke="#acb5aa" stroke-linecap="round" stroke-linejoin="round" stroke-width=".45" d="M-100 698q550-143 1050 8t750-32" opacity=".19"/><path fill="none" stroke="#acb5aa" stroke-linecap="round" stroke-linejoin="round" stroke-width=".45" d="M-100 702q550-142 1050 8t750-31" opacity=".19"/><path fill="none" stroke="#acb5aa" stroke-linecap="round" stroke-linejoin="round" stroke-width=".45" d="M-100 706q550-141 1050 8t750-30" opacity=".19"/><path fill="none" stroke="#acb5aa" stroke-linecap="round" stroke-linejoin="round" stroke-width=".45" d="M-100 710q550-140 1050 8t750-29" opacity=".19"/><path fill="none" stroke="#acb5aa" stroke-linecap="round" stroke-linejoin="round" stroke-width=".45" d="M-100 714q550-139 1050 8t750-28" opacity=".19"/><path fill="none" stroke="#acb5aa" stroke-linecap="round" stroke-linejoin="round" stroke-width=".45" d="M-100 718q550-138 1050 8t750-27" opacity=".19"/><path fill="none" stroke="#acb5aa" stroke-linecap="round" stroke-linejoin="round" stroke-width=".45" d="M-100 722q550-137 1050 8t750-26" opacity=".19"/><path fill="none" stroke="#acb5aa" stroke-linecap="round" stroke-linejoin="round" stroke-width=".45" d="M-100 726q550-136 1050 8t750-25" opacity=".19"/><path fill="#273e55" stroke="#acb5aa" stroke-linecap="round" stroke-linejoin="round" stroke-width=".7" d="M-100 745q550-160 1050 5t750-45v345H-100Z" opacity=".9"/><path fill="none" stroke="#acb5aa" stroke-linecap="round" stroke-linejoin="round" stroke-width=".45" d="M-100 745q550-155 1050 8t750-44" opacity=".19"/><path fill="none" stroke="#acb5aa" stroke-linecap="round" stroke-linejoin="round" stroke-width=".45" d="M-100 749q550-154 1050 8t750-43" opacity=".19"/><path fill="none" stroke="#acb5aa" stroke-linecap="round" stroke-linejoin="round" stroke-width=".45" d="M-100 753q550-153 1050 8t750-42" opacity=".19"/><path fill="none" stroke="#acb5aa" stroke-linecap="round" stroke-linejoin="round" stroke-width=".45" d="M-100 757q550-152 1050 8t750-41" opacity=".19"/><path fill="none" stroke="#acb5aa" stroke-linecap="round" stroke-linejoin="round" stroke-width=".45" d="M-100 761q550-151 1050 8t750-40" opacity=".19"/><path fill="none" stroke="#acb5aa" stroke-linecap="round" stroke-linejoin="round" stroke-width=".45" d="M-100 765q550-150 1050 8t750-39" opacity=".19"/><path fill="none" stroke="#acb5aa" stroke-linecap="round" stroke-linejoin="round" stroke-width=".45" d="M-100 769q550-149 1050 8t750-38" opacity=".19"/><path fill="none" stroke="#acb5aa" stroke-linecap="round" stroke-linejoin="round" stroke-width=".45" d="M-100 773q550-148 1050 8t750-37" opacity=".19"/><path fill="none" stroke="#acb5aa" stroke-linecap="round" stroke-linejoin="round" stroke-width=".45" d="M-100 777q550-147 1050 8t750-36" opacity=".19"/><path fill="none" stroke="#acb5aa" stroke-linecap="round" stroke-linejoin="round" stroke-width=".45" d="M-100 781q550-146 1050 8t750-35" opacity=".19"/><path fill="none" stroke="#acb5aa" stroke-linecap="round" stroke-linejoin="round" stroke-width=".45" d="M-100 785q550-145 1050 8t750-34" opacity=".19"/><path fill="none" stroke="#acb5aa" stroke-linecap="round" stroke-linejoin="round" stroke-width=".45" d="M-100 789q550-144 1050 8t750-33" opacity=".19"/><path fill="none" stroke="#acb5aa" stroke-linecap="round" stroke-linejoin="round" stroke-width=".45" d="M-100 793q550-143 1050 8t750-32" opacity=".19"/><path fill="none" stroke="#acb5aa" stroke-linecap="round" stroke-linejoin="round" stroke-width=".45" d="M-100 797q550-142 1050 8t750-31" opacity=".19"/><path fill="none" stroke="#acb5aa" stroke-linecap="round" stroke-linejoin="round" stroke-width=".45" d="M-100 801q550-141 1050 8t750-30" opacity=".19"/><path fill="none" stroke="#acb5aa" stroke-linecap="round" stroke-linejoin="round" stroke-width=".45" d="M-100 805q550-140 1050 8t750-29" opacity=".19"/><path fill="none" stroke="#acb5aa" stroke-linecap="round" stroke-linejoin="round" stroke-width=".45" d="M-100 809q550-139 1050 8t750-28" opacity=".19"/><path fill="none" stroke="#acb5aa" stroke-linecap="round" stroke-linejoin="round" stroke-width=".45" d="M-100 813q550-138 1050 8t750-27" opacity=".19"/><path fill="none" stroke="#acb5aa" stroke-linecap="round" stroke-linejoin="round" stroke-width=".45" d="M-100 817q550-137 1050 8t750-26" opacity=".19"/><path fill="none" stroke="#acb5aa" stroke-linecap="round" stroke-linejoin="round" stroke-width=".45" d="M-100 821q550-136 1050 8t750-25" opacity=".19"/><path fill="#697f90" stroke="#acb5aa" stroke-linecap="round" stroke-linejoin="round" stroke-width=".7" d="M-100 840q550-160 1050 5t750-45v250H-100Z" opacity=".9"/><path fill="none" stroke="#acb5aa" stroke-linecap="round" stroke-linejoin="round" stroke-width=".45" d="M-100 840q550-155 1050 8t750-44" opacity=".19"/><path fill="none" stroke="#acb5aa" stroke-linecap="round" stroke-linejoin="round" stroke-width=".45" d="M-100 844q550-154 1050 8t750-43" opacity=".19"/><path fill="none" stroke="#acb5aa" stroke-linecap="round" stroke-linejoin="round" stroke-width=".45" d="M-100 848q550-153 1050 8t750-42" opacity=".19"/><path fill="none" stroke="#acb5aa" stroke-linecap="round" stroke-linejoin="round" stroke-width=".45" d="M-100 852q550-152 1050 8t750-41" opacity=".19"/><path fill="none" stroke="#acb5aa" stroke-linecap="round" stroke-linejoin="round" stroke-width=".45" d="M-100 856q550-151 1050 8t750-40" opacity=".19"/><path fill="none" stroke="#acb5aa" stroke-linecap="round" stroke-linejoin="round" stroke-width=".45" d="M-100 860q550-150 1050 8t750-39" opacity=".19"/><path fill="none" stroke="#acb5aa" stroke-linecap="round" stroke-linejoin="round" stroke-width=".45" d="M-100 864q550-149 1050 8t750-38" opacity=".19"/><path fill="none" stroke="#acb5aa" stroke-linecap="round" stroke-linejoin="round" stroke-width=".45" d="M-100 868q550-148 1050 8t750-37" opacity=".19"/><path fill="none" stroke="#acb5aa" stroke-linecap="round" stroke-linejoin="round" stroke-width=".45" d="M-100 872q550-147 1050 8t750-36" opacity=".19"/><path fill="none" stroke="#acb5aa" stroke-linecap="round" stroke-linejoin="round" stroke-width=".45" d="M-100 876q550-146 1050 8t750-35" opacity=".19"/><path fill="none" stroke="#acb5aa" stroke-linecap="round" stroke-linejoin="round" stroke-width=".45" d="M-100 880q550-145 1050 8t750-34" opacity=".19"/><path fill="none" stroke="#acb5aa" stroke-linecap="round" stroke-linejoin="round" stroke-width=".45" d="M-100 884q550-144 1050 8t750-33" opacity=".19"/><path fill="none" stroke="#acb5aa" stroke-linecap="round" stroke-linejoin="round" stroke-width=".45" d="M-100 888q550-143 1050 8t750-32" opacity=".19"/><path fill="none" stroke="#acb5aa" stroke-linecap="round" stroke-linejoin="round" stroke-width=".45" d="M-100 892q550-142 1050 8t750-31" opacity=".19"/><path fill="none" stroke="#acb5aa" stroke-linecap="round" stroke-linejoin="round" stroke-width=".45" d="M-100 896q550-141 1050 8t750-30" opacity=".19"/><path fill="none" stroke="#acb5aa" stroke-linecap="round" stroke-linejoin="round" stroke-width=".45" d="M-100 900q550-140 1050 8t750-29" opacity=".19"/><path fill="none" stroke="#acb5aa" stroke-linecap="round" stroke-linejoin="round" stroke-width=".45" d="M-100 904q550-139 1050 8t750-28" opacity=".19"/><path fill="none" stroke="#acb5aa" stroke-linecap="round" stroke-linejoin="round" stroke-width=".45" d="M-100 908q550-138 1050 8t750-27" opacity=".19"/><path fill="none" stroke="#acb5aa" stroke-linecap="round" stroke-linejoin="round" stroke-width=".45" d="M-100 912q550-137 1050 8t750-26" opacity=".19"/><path fill="none" stroke="#acb5aa" stroke-linecap="round" stroke-linejoin="round" stroke-width=".45" d="M-100 916q550-136 1050 8t750-25" opacity=".19"/><path fill="#273e55" stroke="#acb5aa" stroke-linecap="round" stroke-linejoin="round" stroke-width=".7" d="M-100 935q550-160 1050 5t750-45v155H-100Z" opacity=".9"/><path fill="none" stroke="#acb5aa" stroke-linecap="round" stroke-linejoin="round" stroke-width=".45" d="M-100 935q550-155 1050 8t750-44" opacity=".19"/><path fill="none" stroke="#acb5aa" stroke-linecap="round" stroke-linejoin="round" stroke-width=".45" d="M-100 939q550-154 1050 8t750-43" opacity=".19"/><path fill="none" stroke="#acb5aa" stroke-linecap="round" stroke-linejoin="round" stroke-width=".45" d="M-100 943q550-153 1050 8t750-42" opacity=".19"/><path fill="none" stroke="#acb5aa" stroke-linecap="round" stroke-linejoin="round" stroke-width=".45" d="M-100 947q550-152 1050 8t750-41" opacity=".19"/><path fill="none" stroke="#acb5aa" stroke-linecap="round" stroke-linejoin="round" stroke-width=".45" d="M-100 951q550-151 1050 8t750-40" opacity=".19"/><path fill="none" stroke="#acb5aa" stroke-linecap="round" stroke-linejoin="round" stroke-width=".45" d="M-100 955q550-150 1050 8t750-39" opacity=".19"/><path fill="none" stroke="#acb5aa" stroke-linecap="round" stroke-linejoin="round" stroke-width=".45" d="M-100 959q550-149 1050 8t750-38" opacity=".19"/><path fill="none" stroke="#acb5aa" stroke-linecap="round" stroke-linejoin="round" stroke-width=".45" d="M-100 963q550-148 1050 8t750-37" opacity=".19"/><path fill="none" stroke="#acb5aa" stroke-linecap="round" stroke-linejoin="round" stroke-width=".45" d="M-100 967q550-147 1050 8t750-36" opacity=".19"/><path fill="none" stroke="#acb5aa" stroke-linecap="round" stroke-linejoin="round" stroke-width=".45" d="M-100 971q550-146 1050 8t750-35" opacity=".19"/><path fill="none" stroke="#acb5aa" stroke-linecap="round" stroke-linejoin="round" stroke-width=".45" d="M-100 975q550-145 1050 8t750-34" opacity=".19"/><path fill="none" stroke="#acb5aa" stroke-linecap="round" stroke-linejoin="round" stroke-width=".45" d="M-100 979q550-144 1050 8t750-33" opacity=".19"/><path fill="none" stroke="#acb5aa" stroke-linecap="round" stroke-linejoin="round" stroke-width=".45" d="M-100 983q550-143 1050 8t750-32" opacity=".19"/><path fill="none" stroke="#acb5aa" stroke-linecap="round" stroke-linejoin="round" stroke-width=".45" d="M-100 987q550-142 1050 8t750-31" opacity=".19"/><path fill="none" stroke="#acb5aa" stroke-linecap="round" stroke-linejoin="round" stroke-width=".45" d="M-100 991q550-141 1050 8t750-30" opacity=".19"/><path fill="none" stroke="#acb5aa" stroke-linecap="round" stroke-linejoin="round" stroke-width=".45" d="M-100 995q550-140 1050 8t750-29" opacity=".19"/><path fill="none" stroke="#acb5aa" stroke-linecap="round" stroke-linejoin="round" stroke-width=".45" d="M-100 999q550-139 1050 8t750-28" opacity=".19"/><path fill="none" stroke="#acb5aa" stroke-linecap="round" stroke-linejoin="round" stroke-width=".45" d="M-100 1003q550-138 1050 8t750-27" opacity=".19"/><path fill="none" stroke="#acb5aa" stroke-linecap="round" stroke-linejoin="round" stroke-width=".45" d="M-100 1007q550-137 1050 8t750-26" opacity=".19"/><path fill="none" stroke="#acb5aa" stroke-linecap="round" stroke-linejoin="round" stroke-width=".45" d="M-100 1011q550-136 1050 8t750-25" opacity=".19"/><path fill="#697f90" stroke="#acb5aa" stroke-linecap="round" stroke-linejoin="round" stroke-width=".7" d="M-100 1030q550-160 1050 5t750-45v60H-100Z" opacity=".9"/><path fill="none" stroke="#acb5aa" stroke-linecap="round" stroke-linejoin="round" stroke-width=".45" d="M-100 1030q550-155 1050 8t750-44" opacity=".19"/><path fill="none" stroke="#acb5aa" stroke-linecap="round" stroke-linejoin="round" stroke-width=".45" d="M-100 1034q550-154 1050 8t750-43" opacity=".19"/><path fill="none" stroke="#acb5aa" stroke-linecap="round" stroke-linejoin="round" stroke-width=".45" d="M-100 1038q550-153 1050 8t750-42" opacity=".19"/><path fill="none" stroke="#acb5aa" stroke-linecap="round" stroke-linejoin="round" stroke-width=".45" d="M-100 1042q550-152 1050 8t750-41" opacity=".19"/><path fill="none" stroke="#acb5aa" stroke-linecap="round" stroke-linejoin="round" stroke-width=".45" d="M-100 1046q550-151 1050 8t750-40" opacity=".19"/><path fill="none" stroke="#acb5aa" stroke-linecap="round" stroke-linejoin="round" stroke-width=".45" d="M-100 1050q550-150 1050 8t750-39" opacity=".19"/><path fill="none" stroke="#acb5aa" stroke-linecap="round" stroke-linejoin="round" stroke-width=".45" d="M-100 1054q550-149 1050 8t750-38" opacity=".19"/><path fill="none" stroke="#acb5aa" stroke-linecap="round" stroke-linejoin="round" stroke-width=".45" d="M-100 1058q550-148 1050 8t750-37" opacity=".19"/><path fill="none" stroke="#acb5aa" stroke-linecap="round" stroke-linejoin="round" stroke-width=".45" d="M-100 1062q550-147 1050 8t750-36" opacity=".19"/><path fill="none" stroke="#acb5aa" stroke-linecap="round" stroke-linejoin="round" stroke-width=".45" d="M-100 1066q550-146 1050 8t750-35" opacity=".19"/><path fill="none" stroke="#acb5aa" stroke-linecap="round" stroke-linejoin="round" stroke-width=".45" d="M-100 1070q550-145 1050 8t750-34" opacity=".19"/><path fill="none" stroke="#acb5aa" stroke-linecap="round" stroke-linejoin="round" stroke-width=".45" d="M-100 1074q550-144 1050 8t750-33" opacity=".19"/><path fill="none" stroke="#acb5aa" stroke-linecap="round" stroke-linejoin="round" stroke-width=".45" d="M-100 1078q550-143 1050 8t750-32" opacity=".19"/><path fill="none" stroke="#acb5aa" stroke-linecap="round" stroke-linejoin="round" stroke-width=".45" d="M-100 1082q550-142 1050 8t750-31" opacity=".19"/><path fill="none" stroke="#acb5aa" stroke-linecap="round" stroke-linejoin="round" stroke-width=".45" d="M-100 1086q550-141 1050 8t750-30" opacity=".19"/><path fill="none" stroke="#acb5aa" stroke-linecap="round" stroke-linejoin="round" stroke-width=".45" d="M-100 1090q550-140 1050 8t750-29" opacity=".19"/><path fill="none" stroke="#acb5aa" stroke-linecap="round" stroke-linejoin="round" stroke-width=".45" d="M-100 1094q550-139 1050 8t750-28" opacity=".19"/><path fill="none" stroke="#acb5aa" stroke-linecap="round" stroke-linejoin="round" stroke-width=".45" d="M-100 1098q550-138 1050 8t750-27" opacity=".19"/><path fill="none" stroke="#acb5aa" stroke-linecap="round" stroke-linejoin="round" stroke-width=".45" d="M-100 1102q550-137 1050 8t750-26" opacity=".19"/><path fill="none" stroke="#acb5aa" stroke-linecap="round" stroke-linejoin="round" stroke-width=".45" d="M-100 1106q550-136 1050 8t750-25" opacity=".19"/><path fill="#273e55" stroke="#acb5aa" stroke-linecap="round" stroke-linejoin="round" stroke-width=".8" d="m750 650 24-24 28 24Zm42 20.2 24-24 28 24Z"/><path fill="#273e55" stroke="#acb5aa" stroke-linecap="round" stroke-linejoin="round" stroke-width=".8" d="m834 671.82 24-24 28 24Zm42-18.43 24-24 28 24Zm42-21.55 24-24 28 24Z"/><path fill="#273e55" stroke="#acb5aa" stroke-linecap="round" stroke-linejoin="round" stroke-width=".8" d="m960 626.99 24-24 28 24Zm42 16.3 24-24 28 24Zm42 22.48 24-24 28 24Z"/><path fill="#273e55" stroke="#acb5aa" stroke-linecap="round" stroke-linejoin="round" stroke-width=".8" d="m1086 673.75 24-24 28 24Zm42-13.86 24-24 28 24Zm42-22.95 24-24 28 24Zm42-10.94 24-24 28 24Zm42 11.12 24-24 28 24Zm42 22.96 24-24 28 24Zm42 13.7 24-24 28 24Z"/><g transform="matrix(.72 0 0 .72 1255 938)"><circle cy="-80" r="180" fill="url(#b)"/><path fill="url(#e)" stroke="#acb5aa" stroke-linecap="round" stroke-linejoin="round" stroke-width="1.2" d="M-65 0q25 70 89 35L73-8 35 3Q0-17-65 0"/><path fill="none" stroke="#acb5aa" stroke-linecap="round" stroke-linejoin="round" stroke-width="3" d="M-63 2q-42-38-22-44 24-5 37 31"/><path fill="none" stroke="#acb5aa" stroke-linecap="round" stroke-linejoin="round" stroke-width=".65" d="M-42 12q10 18 26 14" opacity=".5"/><path fill="none" stroke="#acb5aa" stroke-linecap="round" stroke-linejoin="round" stroke-width=".65" d="M-38 12q10 18 26 14" opacity=".5"/><path fill="none" stroke="#acb5aa" stroke-linecap="round" stroke-linejoin="round" stroke-width=".65" d="M-34 12q10 18 26 14" opacity=".5"/><path fill="none" stroke="#acb5aa" stroke-linecap="round" stroke-linejoin="round" stroke-width=".65" d="M-30 12q10 18 26 14" opacity=".5"/><path fill="none" stroke="#acb5aa" stroke-linecap="round" stroke-linejoin="round" stroke-width=".65" d="M-26 12q10 18 26 14" opacity=".5"/><path fill="none" stroke="#acb5aa" stroke-linecap="round" stroke-linejoin="round" stroke-width=".65" d="M-22 12q10 18 26 14" opacity=".5"/><path fill="none" stroke="#acb5aa" stroke-linecap="round" stroke-linejoin="round" stroke-width=".65" d="M-18 12Q-8 30 8 26" opacity=".5"/><path fill="none" stroke="#acb5aa" stroke-linecap="round" stroke-linejoin="round" stroke-width=".65" d="M-14 12q10 18 26 14" opacity=".5"/><path fill="none" stroke="#acb5aa" stroke-linecap="round" stroke-linejoin="round" stroke-width=".65" d="M-10 12Q0 30 16 26" opacity=".5"/><path fill="none" stroke="#acb5aa" stroke-linecap="round" stroke-linejoin="round" stroke-width=".65" d="M-6 12Q4 30 20 26" opacity=".5"/><path fill="none" stroke="#acb5aa" stroke-linecap="round" stroke-linejoin="round" stroke-width=".65" d="M-2 12Q8 30 24 26" opacity=".5"/><path fill="none" stroke="#acb5aa" stroke-linecap="round" stroke-linejoin="round" stroke-width=".65" d="M2 12q10 18 26 14" opacity=".5"/><path fill="#f1dba9" stroke="#acb5aa" stroke-linecap="round" stroke-linejoin="round" d="M60-12q-24-32 1-66-9 31 11 46 5 12-12 20"/></g></svg>